<?xml version="1.0" standalone="no"?>
<!DOCTYPE svg PUBLIC "-//W3C//DTD SVG 20010904//EN"
 "http://www.w3.org/TR/2001/REC-SVG-20010904/DTD/svg10.dtd">
<svg version="1.0" xmlns="http://www.w3.org/2000/svg"
 width="629.000000pt" height="804.000000pt" viewBox="0 0 629.000000 804.000000"
 preserveAspectRatio="xMidYMid meet">
<g transform="translate(0.000000,804.000000) scale(0.100000,-0.100000)"
fill="#000000" stroke="none">
<path d="M3495 7977 c-77 -26 -105 -48 -303 -248 l-201 -201 -253 1 c-160 1
-273 -2 -307 -10 -61 -13 -121 -60 -152 -120 l-19 -38 -242 -3 c-273 -3 -282
-6 -373 -89 -68 -62 -87 -119 -96 -284 -4 -77 -8 -143 -8 -147 -1 -5 -182 -8
-404 -8 -440 0 -487 -5 -555 -57 -19 -14 -46 -50 -61 -82 -24 -53 -26 -67 -31
-251 l-5 -194 -44 -8 c-60 -10 -116 -49 -143 -101 l-23 -42 -3 -1395 c-3
-1497 2 -1764 38 -1889 53 -187 181 -370 330 -471 73 -50 140 -83 225 -111
l70 -24 1660 -3 c1826 -3 1728 -6 1863 58 135 63 222 139 311 269 93 136 118
228 195 721 45 282 117 738 156 980 16 102 39 246 50 320 11 74 42 277 70 450
28 173 62 389 76 480 52 341 82 414 205 505 86 63 143 81 376 115 236 35 276
44 316 72 34 25 67 87 67 129 0 70 -57 139 -133 160 -35 9 -78 6 -263 -20
-122 -17 -255 -40 -296 -50 -231 -59 -408 -226 -510 -478 -34 -87 -62 -222
-123 -608 -25 -159 -57 -357 -70 -440 -76 -469 -111 -692 -171 -1070 -96 -619
-152 -948 -170 -997 -31 -88 -116 -188 -192 -224 -95 -45 -49 -44 -1727 -44
-1515 0 -1594 1 -1657 18 -166 47 -308 205 -353 393 -13 55 -15 260 -15 1517
l0 1452 733 1 c402 1 1363 2 2133 3 1387 1 1402 1 1424 21 30 27 60 92 60 133
0 34 -21 84 -49 116 -27 31 -73 49 -141 55 l-65 6 -5 275 c-5 297 -6 301 -64
363 -49 53 -98 67 -233 67 -68 0 -123 3 -123 8 0 4 13 23 29 42 87 106 108
217 60 321 -27 58 -87 122 -329 354 -184 177 -288 265 -335 286 -57 25 -149
32 -200 16z m152 -174 c17 -10 147 -128 287 -263 283 -271 298 -290 276 -369
-11 -41 -71 -113 -193 -234 l-49 -48 -53 50 c-87 82 -96 84 -367 89 l-236 4
-51 57 c-27 32 -73 73 -101 91 l-50 32 0 103 0 103 178 183 c97 100 191 190
207 201 38 23 111 23 152 1z m-749 -516 l3 -77 -218 2 -218 3 -3 69 c-2 49 1
72 10 78 7 4 105 7 218 5 l205 -2 3 -78z m-658 -216 c0 -92 -4 -132 -13 -139
-8 -7 -90 -10 -242 -8 l-230 3 -3 76 c-7 172 30 192 356 196 l132 1 0 -129z
m650 -84 l0 -64 -137 -6 c-75 -4 -171 -7 -215 -7 l-78 0 0 70 0 70 215 0 215
0 0 -63z m823 -142 c76 -37 85 -89 72 -409 l-7 -186 -329 0 -329 0 0 253 c0
251 0 253 24 288 44 64 64 69 314 69 181 0 230 -3 255 -15z m-1482 -175 c1
-47 1 -101 1 -120 -1 -19 -3 -93 -4 -165 l-3 -130 -237 -3 -238 -2 0 248 c0
137 3 252 6 255 4 3 112 5 240 4 l234 -2 1 -85z m2264 84 c39 -15 45 -54 45
-284 l0 -220 -230 0 -230 0 0 255 0 255 199 0 c110 0 207 -3 216 -6z m-1599
-51 c-3 -21 -6 -131 -6 -245 l0 -208 -210 0 -210 0 0 199 c0 109 -3 219 -6
245 l-7 46 223 0 223 0 -7 -37z m-1358 -245 l-3 -203 -448 -3 -448 -2 3 169
c3 165 4 170 28 196 14 15 34 31 45 35 11 5 201 9 423 9 l402 1 -2 -202z"/>
<path d="M1790 4176 c0 -711 4 -1197 9 -1200 5 -4 88 -3 185 1 l176 6 0 474 0
473 539 0 c296 0 559 3 585 6 l46 7 0 183 0 184 -457 1 c-252 1 -514 3 -583 5
l-125 4 -3 335 -2 335 767 2 768 3 3 155 c2 85 0 170 -3 188 l-6 32 -949 0
-950 0 0 -1194z"/>
<path d="M1035 1688 c-167 -20 -332 -104 -465 -237 -246 -246 -313 -586 -175
-897 58 -130 184 -277 303 -351 40 -25 70 -48 68 -51 -3 -3 -147 -4 -320 -3
-324 2 -344 0 -373 -38 -19 -25 -15 -48 13 -70 26 -20 31 -21 1238 -20 932 0
1218 3 1236 12 34 17 39 66 9 93 -20 18 -44 19 -548 24 l-526 5 60 39 c370
240 490 717 273 1079 -26 44 -48 84 -48 89 0 4 421 8 935 8 704 0 935 -3 935
-12 0 -6 -13 -32 -30 -57 -46 -72 -97 -190 -110 -256 -18 -87 -16 -276 4 -355
50 -197 197 -393 373 -499 54 -32 63 -41 43 -41 -14 0 -235 0 -491 0 l-467 0
-26 -31 c-30 -35 -32 -47 -12 -75 14 -19 40 -19 1277 -21 1114 -3 1265 -1
1286 12 22 15 30 50 15 70 -29 40 -32 40 -450 45 l-405 5 64 42 c141 91 245
209 313 354 50 105 67 178 73 304 10 219 -56 395 -210 561 -87 93 -169 155
-271 203 -161 77 -28 72 -1876 74 -911 1 -1683 -1 -1715 -5z m307 -370 c135
-67 223 -178 263 -333 19 -74 19 -122 0 -203 -23 -97 -60 -165 -128 -235 -105
-109 -231 -156 -386 -144 -98 8 -162 32 -247 92 -118 84 -190 211 -201 350
-17 224 133 439 348 500 37 10 88 14 166 12 105 -3 116 -5 185 -39z m3109 22
c78 -24 138 -61 206 -127 95 -92 139 -218 130 -368 -8 -120 -52 -212 -146
-305 -106 -105 -228 -149 -376 -137 -96 8 -155 29 -237 84 -312 206 -280 661
59 832 61 30 105 39 209 40 65 1 110 -5 155 -19z"/>
</g>
</svg>
